<svg width="104" height="34" viewBox="0 0 104 34" fill="none" xmlns="http://www.w3.org/2000/svg">
<path d="M2.32814 6.5553C1.04235 5.51036 0.84709 3.62093 1.89203 2.33513C2.93697 1.04933 4.82581 0.8536 6.1116 1.89854C9.76888 4.87073 16.9734 10.7257 22.1105 14.9005C27.2476 19.0753 34.4521 24.9302 38.1094 27.9024C39.3952 28.9474 39.5899 30.8363 38.5449 32.1221C37.5 33.4079 35.6105 33.6032 34.3247 32.5582L18.3264 19.5568L2.32814 6.5553Z" fill="#A70D60" fill-opacity="0.85"/>
<rect x="63.9914" y="4.65628" width="6" height="47.2334" rx="3" transform="rotate(-50.9 63.9914 4.65628)" fill="#A70D60" fill-opacity="0.85"/>
<rect x="31.9938" y="4.65828" width="6" height="47.231" rx="3" transform="rotate(-50.9 31.9938 4.65828)" fill="#A70D60" fill-opacity="0.85"/>
<rect x="65.212" y="1.22334" width="6" height="32" rx="3" fill="#FF8717" fill-opacity="0.85"/>
<rect x="33.212" y="1.22334" width="6" height="32" rx="3" fill="#FF8717" fill-opacity="0.85"/>
<rect x="97.212" y="1.22334" width="6" height="32" rx="3" fill="#FF8717" fill-opacity="0.85"/>
</svg>
