<svg width="128" height="128" viewBox="0 0 128 128" fill="none" xmlns="http://www.w3.org/2000/svg">
<circle cx="64" cy="64" r="64" fill="#4F4F4F"/>
<mask id="mask0_4_17" style="mask-type:alpha" maskUnits="userSpaceOnUse" x="0" y="0" width="128" height="128">
<circle cx="64" cy="64" r="64" fill="#EAEAEA"/>
</mask>
<g mask="url(#mask0_4_17)">
<path d="M109.15 82.8C125.002 118.06 119.697 154.807 97.3008 164.876C74.9041 174.946 43.8968 154.525 28.044 119.265C12.1913 84.0044 22.2 41.2 32 30.4923C46.2127 14.9631 93.2968 47.5398 109.15 82.8Z" fill="#EAEAEA"/>
<path d="M120.01 52.3517C101.586 53.4419 104.814 80.9595 104.814 80.9595C104.814 80.9595 80.2402 57.9644 72.6121 43.7328C64.9839 29.5012 138.434 51.2615 120.01 52.3517Z" fill="#EAEAEA"/>
<circle cx="64.4" cy="54" r="6.4" fill="#4F4F4F"/>
<circle cx="68" cy="52" r="2.8" fill="#EAEAEA"/>
<path d="M75.6213 68.2696C80.2049 67.8818 69.0108 94.5204 46.6694 93.683C24.8119 92.8638 21.884 76.0275 24.6741 75.7914C27.4641 75.5554 27.6272 76.8284 42.9261 75.534C58.2249 74.2396 71.0377 68.6574 75.6213 68.2696Z" fill="#4F4F4F"/>
<path d="M32.466 82.7063C28.3811 82.3554 27.2534 71.7596 27.2534 71.7596L39.3398 72.7188C39.3398 72.7188 36.5509 83.0572 32.466 82.7063Z" fill="#EAEAEA"/>
<path d="M45.1756 81.4352C42.1611 81.8055 39.7234 74.2978 39.7234 74.2978L48.6307 73.1448C48.6307 73.1448 48.1901 81.0648 45.1756 81.4352Z" fill="#EAEAEA"/>
<path d="M39.2369 86.7878C42.22 87.3588 42.2405 95.2523 42.2405 95.2523L33.4083 93.6212C33.4083 93.6212 36.2539 86.2169 39.2369 86.7878Z" fill="#EAEAEA"/>
<path d="M50.155 86.7504C53.1418 86.1997 56.0259 93.5475 56.0259 93.5475L47.204 95.2333C47.204 95.2333 47.1681 87.3011 50.155 86.7504Z" fill="#EAEAEA"/>
<path d="M60.4105 83.4991C63.126 82.1387 67.9416 88.3931 67.9416 88.3931L59.9377 92.4682C59.9377 92.4682 57.6951 84.8595 60.4105 83.4991Z" fill="#EAEAEA"/>
<path d="M56.0384 79.3893C53.0949 80.1378 49.7278 72.9984 49.7278 72.9984L58.4178 70.7287C58.4178 70.7287 58.9819 78.6409 56.0384 79.3893Z" fill="#EAEAEA"/>
<path d="M67.3521 78.4618C63.3521 79.362 59.0748 69.6026 59.0748 69.6026L70.8858 66.8638C70.8858 66.8638 71.352 77.5617 67.3521 78.4618Z" fill="#EAEAEA"/>
</g>
</svg>
